<?xml version="1.0" standalone="no"?>
<!DOCTYPE svg PUBLIC "-//W3C//DTD SVG 20010904//EN"
 "http://www.w3.org/TR/2001/REC-SVG-20010904/DTD/svg10.dtd">
<svg version="1.0" xmlns="http://www.w3.org/2000/svg"
 width="1024.000000pt" height="1024.000000pt" viewBox="0 0 1024.000000 1024.000000"
 preserveAspectRatio="xMidYMid meet">
<metadata>
Created by potrace 1.14, written by Peter Selinger 2001-2017
</metadata>
<g transform="translate(0.000000,1024.000000) scale(0.100000,-0.100000)"
fill="#000000" stroke="none">
<path d="M4838 9483 c-14 -27 -67 -120 -118 -208 -134 -230 -132 -227 -148
-260 -9 -16 -18 -32 -21 -35 -7 -6 -21 -30 -64 -110 -16 -30 -35 -62 -42 -70
-7 -8 -14 -19 -16 -25 -2 -5 -33 -61 -69 -123 -36 -62 -72 -125 -80 -140 -8
-15 -38 -65 -65 -112 -28 -46 -55 -94 -62 -105 -6 -11 -19 -33 -27 -50 -9 -16
-20 -37 -26 -45 -9 -14 -77 -130 -121 -207 -11 -18 -29 -50 -41 -70 -12 -21
-28 -51 -37 -66 -9 -16 -21 -36 -26 -45 -6 -9 -28 -48 -50 -87 -21 -38 -41
-72 -44 -75 -3 -3 -15 -23 -27 -45 -11 -22 -37 -67 -56 -100 -87 -148 -148
-258 -148 -265 0 -5 -4 -10 -8 -12 -5 -1 -22 -28 -39 -58 -70 -126 -87 -155
-95 -158 -4 -2 -8 -9 -8 -14 0 -6 -24 -52 -54 -102 -30 -50 -63 -107 -73 -126
-11 -19 -46 -80 -78 -135 -32 -55 -69 -120 -83 -144 -14 -25 -38 -68 -55 -95
-35 -60 -60 -104 -95 -166 -14 -25 -33 -57 -43 -72 -11 -14 -19 -29 -19 -32 0
-4 -11 -25 -26 -47 -14 -22 -34 -56 -45 -75 -10 -19 -28 -50 -39 -69 -11 -19
-29 -50 -39 -69 -11 -19 -31 -53 -45 -75 -15 -22 -26 -43 -26 -45 0 -3 -14
-29 -31 -58 -18 -29 -41 -69 -52 -88 -11 -19 -28 -48 -38 -65 -10 -16 -30 -52
-45 -80 -15 -27 -42 -74 -60 -103 -19 -29 -34 -55 -34 -57 0 -3 -20 -38 -44
-78 -24 -39 -53 -90 -65 -112 -12 -22 -34 -61 -49 -86 -15 -26 -47 -82 -71
-125 -25 -44 -47 -81 -50 -84 -3 -3 -13 -18 -21 -35 -8 -16 -29 -54 -47 -83
-18 -29 -33 -54 -33 -57 0 -3 -18 -34 -40 -70 -22 -36 -40 -70 -40 -75 0 -6
-4 -10 -8 -10 -4 0 -13 -12 -19 -27 -7 -16 -20 -41 -30 -58 -68 -112 -103
-175 -103 -184 0 -6 -4 -11 -9 -11 -5 0 -11 -8 -14 -17 -4 -10 -18 -36 -32
-58 -13 -22 -28 -47 -32 -55 -6 -13 -57 -101 -90 -155 -7 -11 -18 -31 -25 -45
-7 -14 -15 -27 -18 -30 -3 -3 -13 -21 -24 -40 -26 -49 -64 -115 -99 -174 -16
-28 -39 -67 -50 -86 -55 -98 -72 -126 -82 -132 -5 -4 -7 -8 -3 -8 5 0 -12 -33
-37 -72 -25 -40 -45 -78 -45 -85 0 -7 -4 -13 -8 -13 -5 0 -15 -12 -22 -27 -12
-25 -64 -115 -110 -194 -8 -14 -46 -80 -83 -145 -37 -65 -72 -126 -77 -134
-36 -57 -140 -243 -140 -251 0 -5 -3 -9 -8 -9 -4 0 -18 -21 -32 -48 -13 -26
-38 -69 -55 -97 -17 -27 -36 -61 -43 -75 -6 -14 -16 -32 -22 -40 -16 -26 -86
-145 -93 -160 -4 -8 -15 -28 -26 -45 -18 -30 -32 -55 -98 -170 -19 -33 -38
-67 -43 -75 -31 -49 -110 -193 -110 -201 0 -5 -4 -9 -10 -9 -5 0 -12 -11 -16
-25 -3 -14 -10 -25 -15 -25 -5 0 -9 -4 -9 -10 0 -5 -14 -33 -31 -62 -18 -29
-41 -69 -52 -88 -11 -19 -28 -48 -38 -65 -11 -16 -22 -37 -25 -45 -4 -8 -14
-23 -22 -32 -8 -10 -12 -18 -8 -18 4 0 -2 -13 -13 -29 -30 -42 -26 -46 22 -18
23 14 59 34 80 46 21 12 48 28 60 35 37 24 111 66 142 82 17 8 44 23 60 34 17
11 46 28 65 38 19 10 70 40 113 65 43 26 80 47 83 47 2 0 28 16 58 35 30 19
57 35 60 35 3 0 30 16 60 35 29 19 56 31 60 28 3 -4 6 -2 6 4 0 6 8 13 18 17
17 5 52 26 62 36 3 3 28 16 55 30 28 14 52 28 55 31 3 4 32 22 66 40 52 29
210 120 412 237 31 18 65 36 75 39 9 3 17 9 17 13 0 4 15 13 33 21 17 7 34 16
37 19 3 4 37 24 75 45 39 21 82 46 98 57 15 11 27 16 27 11 0 -4 4 -3 8 2 8
11 10 12 157 97 61 34 119 68 130 75 11 7 27 16 35 20 47 23 123 73 135 89 7
11 54 91 105 179 51 88 101 175 111 192 11 18 27 48 38 65 71 124 152 265 160
278 6 8 22 38 37 65 14 28 34 61 44 75 9 14 20 32 24 40 4 8 12 24 19 35 7 11
30 52 52 90 21 39 41 72 44 75 3 3 14 21 25 40 48 89 80 146 86 155 8 10 25
40 78 135 14 25 33 57 43 72 11 14 19 28 19 31 0 2 23 44 52 93 28 49 57 100
65 114 8 14 25 43 39 65 13 22 27 46 31 53 3 8 28 50 54 95 27 45 49 88 49 95
0 6 4 12 8 12 5 0 16 15 25 33 9 17 25 46 35 62 9 17 33 57 51 90 35 61 144
247 161 275 5 8 21 38 36 65 14 28 35 62 45 77 11 14 19 28 19 31 0 3 27 51
60 107 33 56 60 104 60 107 0 3 8 17 19 31 16 23 42 67 85 147 6 11 13 22 16
25 3 3 11 16 17 30 7 14 26 48 43 75 17 28 33 58 37 68 3 9 9 17 14 17 5 0 9
5 9 11 0 9 45 91 97 176 7 13 13 26 12 29 0 4 3 10 8 13 5 3 28 40 52 81 23
41 51 91 63 110 11 19 72 125 135 235 64 110 119 205 123 210 4 6 22 37 39 70
l33 59 0 1369 c0 753 -2 1371 -5 1373 -2 2 -15 -17 -29 -43z"/>
<path d="M5370 9450 c0 -47 -1 -666 -1 -1376 -1 -1288 0 -1291 20 -1327 23
-41 41 -72 96 -167 21 -36 47 -82 59 -102 12 -20 45 -77 74 -127 28 -50 52
-95 52 -101 0 -5 5 -10 10 -10 6 0 10 -4 10 -9 0 -4 26 -53 58 -107 33 -55 76
-130 98 -168 21 -38 46 -81 54 -95 8 -14 31 -53 50 -86 19 -33 40 -69 47 -80
7 -11 18 -31 25 -45 7 -14 27 -49 45 -77 19 -29 38 -63 43 -75 6 -13 19 -36
30 -53 23 -37 42 -68 68 -118 11 -21 25 -43 30 -50 5 -7 22 -37 38 -67 15 -30
31 -57 35 -60 3 -3 14 -21 24 -40 10 -19 30 -53 44 -75 14 -22 26 -42 26 -45
0 -3 13 -27 30 -55 16 -27 38 -63 47 -80 10 -16 26 -46 36 -65 9 -19 19 -37
22 -40 8 -8 30 -43 46 -75 8 -16 23 -43 34 -60 11 -16 26 -43 34 -60 9 -16 27
-48 40 -70 14 -22 32 -53 41 -70 8 -16 24 -45 35 -62 26 -43 38 -63 148 -253
50 -88 92 -165 92 -170 0 -6 4 -10 9 -10 5 0 11 -8 14 -17 4 -10 20 -40 37
-68 17 -27 35 -59 40 -70 6 -11 19 -33 29 -50 20 -34 52 -88 89 -155 13 -25
29 -50 33 -56 5 -6 26 -42 47 -80 45 -81 78 -137 103 -179 10 -16 30 -52 45
-80 15 -27 29 -52 33 -55 6 -5 31 -50 70 -125 9 -16 18 -32 21 -35 8 -8 28
-42 48 -81 10 -19 42 -74 70 -121 29 -47 52 -91 52 -97 0 -6 5 -11 10 -11 6 0
10 -4 10 -10 0 -5 19 -41 42 -80 41 -69 80 -100 188 -153 8 -4 24 -13 35 -20
11 -7 52 -30 90 -51 39 -22 72 -42 75 -45 3 -3 21 -14 40 -23 19 -10 44 -24
55 -30 41 -27 93 -57 233 -134 26 -15 59 -35 74 -45 14 -11 29 -19 33 -19 3 0
31 -16 61 -35 30 -19 56 -35 58 -35 2 0 55 -30 117 -66 111 -65 139 -81 216
-125 21 -12 52 -30 68 -40 17 -10 53 -30 80 -45 28 -15 61 -35 74 -45 13 -11
27 -19 31 -19 4 0 41 -20 82 -45 42 -25 80 -45 87 -45 6 0 11 -4 11 -9 0 -5 8
-11 18 -14 9 -4 40 -20 67 -37 28 -17 59 -35 70 -40 11 -6 27 -14 35 -20 8 -5
51 -31 95 -56 78 -45 106 -62 190 -110 22 -12 83 -47 135 -77 52 -30 96 -54
98 -53 3 3 -39 87 -48 96 -8 8 -29 43 -42 70 -7 14 -27 48 -45 77 -18 29 -33
54 -33 56 0 3 -18 35 -40 71 -22 36 -40 69 -40 73 0 3 -6 14 -14 22 -7 9 -27
41 -43 71 -17 30 -79 138 -138 240 -59 102 -117 203 -130 225 -12 22 -32 56
-44 75 -11 19 -28 49 -36 65 -9 17 -24 44 -35 60 -10 17 -31 53 -46 80 -14 28
-35 62 -45 77 -11 14 -19 28 -19 31 0 5 -106 189 -130 227 -5 8 -21 35 -35 60
-14 25 -38 68 -55 95 -17 28 -35 61 -41 75 -6 13 -13 27 -17 30 -4 3 -18 25
-31 50 -14 25 -50 88 -81 140 -31 52 -59 102 -63 110 -4 8 -18 33 -32 55 -14
22 -30 49 -35 60 -5 11 -21 38 -35 60 -14 22 -28 47 -32 55 -8 18 -159 278
-173 300 -6 8 -13 22 -17 30 -4 8 -20 38 -36 65 -42 71 -56 94 -139 240 -42
72 -126 218 -188 325 -131 226 -294 509 -322 560 -11 19 -35 60 -54 91 -19 31
-34 61 -34 67 0 6 -4 12 -8 14 -9 3 -56 81 -89 148 -10 19 -20 37 -23 40 -3 3
-11 16 -18 29 -34 60 -54 94 -122 211 -89 153 -104 180 -131 228 -12 20 -30
51 -40 67 -10 17 -23 39 -28 51 -5 12 -25 45 -44 75 -19 30 -46 77 -61 104
-26 49 -34 63 -67 115 -9 14 -29 50 -46 80 -17 30 -40 73 -53 95 -13 22 -35
60 -49 85 -14 25 -29 47 -33 48 -4 2 -8 7 -8 12 0 4 -26 52 -57 106 -31 55
-73 127 -92 162 -20 35 -45 78 -56 97 -11 18 -36 62 -56 97 -74 129 -82 144
-100 173 -10 17 -23 39 -29 50 -6 11 -22 41 -38 67 -15 25 -56 97 -91 160 -36
62 -67 115 -70 118 -3 3 -14 21 -25 40 -46 85 -80 147 -95 170 -9 14 -22 34
-29 45 -7 11 -19 34 -28 50 -8 17 -23 44 -34 60 -11 17 -23 37 -27 45 -4 8
-51 91 -105 183 -54 93 -98 172 -98 178 0 5 -3 9 -8 9 -4 0 -15 17 -25 38 -9
20 -21 44 -27 52 -38 59 -100 170 -100 179 0 6 -4 11 -10 11 -5 0 -10 5 -10
10 0 6 -11 27 -23 48 -13 20 -35 58 -49 83 -45 81 -53 94 -64 109 -6 8 -28 47
-49 85 -21 39 -48 86 -60 105 -12 19 -25 42 -28 50 -4 8 -16 29 -26 45 -52 85
-131 225 -131 234 0 6 -4 11 -8 11 -5 0 -16 15 -25 33 l-16 32 -1 -85z"/>
<path d="M5104 5867 c-6 -12 -41 -73 -77 -136 -37 -62 -67 -118 -67 -122 0 -5
-4 -9 -10 -9 -5 0 -10 -5 -10 -11 0 -6 -15 -37 -34 -68 -38 -63 -65 -109 -131
-226 -25 -44 -50 -87 -55 -95 -6 -8 -33 -55 -61 -105 -28 -49 -61 -106 -72
-125 -11 -19 -32 -55 -46 -80 -13 -25 -29 -48 -34 -51 -5 -3 -8 -9 -8 -13 1
-3 -5 -16 -12 -29 -17 -27 -87 -148 -116 -199 -11 -21 -31 -55 -43 -75 -12
-21 -33 -58 -47 -83 -13 -25 -27 -47 -30 -50 -3 -3 -14 -21 -23 -40 -10 -19
-29 -53 -42 -75 -14 -22 -31 -51 -39 -65 -7 -14 -23 -41 -34 -60 -11 -19 -54
-93 -95 -165 -41 -71 -89 -153 -105 -181 -17 -27 -41 -70 -55 -95 -14 -24 -35
-62 -48 -84 -12 -22 -26 -44 -30 -50 -8 -11 -53 -90 -84 -150 -12 -22 -24 -42
-27 -45 -3 -3 -9 -12 -12 -20 -4 -8 -18 -33 -32 -55 -13 -22 -30 -51 -37 -65
-6 -14 -19 -36 -29 -50 -9 -14 -28 -45 -41 -70 -14 -25 -50 -88 -80 -140 -118
-204 -138 -240 -138 -245 0 -3 179 -4 397 -3 l397 3 27 47 c15 25 38 66 52 90
13 23 34 59 45 78 11 19 33 58 48 85 14 28 35 62 45 77 11 14 19 28 19 31 0 5
107 192 130 227 6 8 14 24 20 35 5 11 21 38 35 60 14 22 28 47 32 55 4 8 33
59 65 113 32 53 58 100 58 102 0 3 16 29 35 59 19 30 35 58 35 61 0 3 16 31
35 61 19 30 35 57 35 59 0 3 11 22 23 43 23 35 45 74 103 180 15 26 33 54 40
63 8 8 14 19 14 23 0 8 106 192 123 214 9 11 13 10 19 -5 5 -10 14 -27 21 -38
7 -11 29 -49 50 -85 21 -36 42 -72 47 -80 10 -16 49 -84 92 -161 14 -24 48
-83 77 -131 28 -48 51 -90 51 -94 0 -4 6 -15 14 -23 7 -9 25 -36 38 -61 14
-25 85 -148 158 -275 73 -126 144 -250 158 -275 32 -57 63 -110 80 -135 7 -11
18 -31 25 -45 6 -14 29 -53 50 -86 20 -34 37 -67 37 -73 0 -6 4 -11 9 -11 5 0
14 -12 20 -27 6 -16 20 -43 31 -60 11 -18 28 -48 38 -65 l19 -33 402 -3 403
-2 -21 29 c-12 16 -21 32 -21 35 0 4 -11 23 -23 44 -23 35 -41 66 -103 177
-15 28 -30 52 -33 55 -6 5 -12 15 -56 96 -14 27 -36 65 -47 84 -11 19 -32 55
-46 80 -13 25 -30 52 -36 60 -7 8 -18 29 -26 45 -8 17 -27 49 -42 72 -15 23
-28 44 -28 47 0 4 -20 39 -43 79 -47 76 -110 186 -147 252 -22 40 -174 302
-197 340 -7 11 -17 31 -23 45 -6 14 -19 33 -27 42 -9 10 -12 18 -7 18 5 0 4 4
-2 8 -7 4 -23 27 -36 52 -13 25 -36 64 -51 87 -15 24 -27 45 -27 49 0 3 -9 19
-21 35 -11 16 -17 29 -12 29 4 0 3 4 -3 8 -5 4 -59 92 -120 197 -60 104 -114
199 -121 210 -7 11 -15 27 -19 35 -5 8 -22 38 -40 66 -18 29 -30 54 -27 58 4
3 1 6 -5 6 -7 0 -12 4 -12 10 0 5 -24 50 -54 99 -30 49 -52 92 -49 95 4 3 2 6
-4 6 -6 0 -18 15 -27 33 -9 17 -30 55 -46 82 -16 28 -33 58 -36 68 -3 9 -10
17 -15 17 -5 0 -9 4 -9 9 0 9 -42 85 -104 191 -15 25 -34 60 -43 78 -20 38
-24 39 -39 9z"/>
<path d="M2662 2069 c-15 -14 -272 -159 -281 -159 -5 0 -11 -4 -13 -8 -1 -5
-61 -42 -133 -83 -71 -41 -139 -79 -150 -86 -11 -7 -29 -17 -40 -22 -11 -6
-45 -25 -76 -43 -81 -48 -341 -198 -402 -232 -29 -16 -55 -33 -58 -38 -3 -6
-8 -8 -10 -7 -4 2 -32 -13 -134 -74 -16 -10 -42 -23 -57 -30 -16 -6 -28 -15
-28 -19 0 -4 -4 -8 -9 -8 -4 0 -48 -23 -97 -52 -49 -28 -114 -65 -144 -83 -30
-18 -106 -62 -167 -98 -62 -36 -113 -62 -113 -59 0 4 -4 2 -8 -3 -7 -10 -79
-55 -132 -83 -14 -7 -41 -23 -61 -35 -45 -27 -132 -77 -179 -103 -19 -10 -36
-22 -38 -26 -2 -5 -10 -8 -17 -8 -8 0 -16 -4 -19 -9 -4 -5 1985 -9 4824 -9
2656 0 4828 4 4825 8 -3 4 -19 15 -37 24 -18 9 -48 26 -67 37 -28 17 -156 91
-331 192 -19 11 -48 28 -65 38 -16 10 -39 23 -50 29 -11 5 -42 23 -70 40 -27
16 -59 34 -70 40 -11 5 -38 21 -60 35 -22 13 -53 31 -70 40 -16 8 -46 25 -65
36 -19 12 -55 33 -80 47 -25 14 -48 29 -51 34 -3 6 -10 10 -15 10 -8 0 -99 50
-144 78 -16 10 -302 174 -380 218 -25 13 -49 28 -55 32 -11 8 -58 35 -145 83
-30 17 -66 38 -79 49 -13 10 -28 18 -33 18 -4 0 -25 11 -46 24 -37 24 -59 37
-207 121 -44 25 -87 50 -95 55 -8 5 -47 27 -87 50 l-71 41 -2452 2 c-1348 1
-2454 -1 -2458 -4z"/>
</g>
</svg>
